<?xml version="1.0" encoding="UTF-8"?>
<svg id="katman_1" xmlns="http://www.w3.org/2000/svg" version="1.1" xmlns:xlink="http://www.w3.org/1999/xlink" viewBox="0 0 370.72 370.72">
  <!-- Generator: Adobe Illustrator 29.2.1, SVG Export Plug-In . SVG Version: 2.1.0 Build 116)  -->
  <defs>
    <style>
      .st0 {
        fill: #fff;
      }

      .st1 {
        fill: none;
      }

      .st2 {
        clip-path: url(#clippath);
      }
    </style>
    <clipPath id="clippath">
      <rect class="st1" width="370.72" height="370.72"/>
    </clipPath>
  </defs>
  <rect width="370.72" height="370.72"/>
  <g class="st2">
    <path class="st0" d="M15.01,159.55c0-39.55,28.9-67.7,67.95-67.7s67.69,28.14,67.69,67.7-28.65,67.95-67.69,67.95S15.01,199.1,15.01,159.55M132.4,159.55c0-31.19-21.04-51.98-49.44-51.98s-49.7,20.79-49.7,51.98,21.3,51.98,49.7,51.98,49.44-20.79,49.44-51.98"/>
    <path class="st0" d="M127.8,268.07l6.34-13.69c5.33,4.57,12.43,6.85,20.79,6.85,14.2,0,22.06-8.62,22.06-25.1V92.87h18v143.25c0,24.59-13.69,40.56-39.05,40.56-10.65,0-21.55-2.79-28.14-8.62"/>
    <path class="st0" d="M220.07,159.55c0-39.55,28.9-67.7,67.95-67.7s67.7,28.14,67.7,67.7-28.65,67.95-67.7,67.95-67.95-28.4-67.95-67.95M337.46,159.55c0-31.19-21.04-51.98-49.44-51.98s-49.7,20.79-49.7,51.98,21.3,51.98,49.7,51.98,49.44-20.79,49.44-51.98"/>
    <path class="st0" d="M163.18,333.96c-29.94,0-61.16-8.86-93.54-26.59l6.25-11.4c76.07,41.66,142.5,31.75,203.07-30.31l9.3,9.08c-38.52,39.46-80.37,59.22-125.08,59.22"/>
    <path class="st0" d="M179.94,77.02c-13.61,0-27.98-4.04-43.05-12.12l6.15-11.45c33.85,18.16,62.32,12.7,87.06-16.68l9.94,8.37c-17.88,21.24-37.99,31.89-60.09,31.89"/>
  </g>
</svg>